<svg width="35" height="26" viewBox="0 0 35 26" xmlns="http://www.w3.org/2000/svg" xmlns:xlink="http://www.w3.org/1999/xlink">
  <desc>
    Created using Figma
  </desc>
  <use xlink:href="#a" transform="translate(4 1)" fill="#FFF"/>
  <use xlink:href="#b" transform="translate(6 8)"/>
  <use xlink:href="#b" transform="translate(22 8)"/>
  <use xlink:href="#c" transform="translate(3)"/>
  <use xlink:href="#d" transform="translate(0 4)"/>
  <use xlink:href="#e" transform="translate(14 18)"/>
  <defs>
    <path id="a" d="M0 0h27v20H0V0z"/>
    <path id="b" d="M0 2.2c0 .28 1.2 2.17 3.52 2.17 2.3 0 3.5-1.9 3.5-2.18 0-.3-1.2-2.2-3.5-2.2S0 1.9 0 2.2zm3.52 1.67c-.87 0-1.57-.76-1.57-1.68 0-.94.7-1.7 1.57-1.7.86 0 1.56.76 1.56 1.7 0 .9-.7 1.67-1.56 1.67zM4.3 2.2c0 .45-.35.83-.78.83-.43 0-.78-.38-.78-.84 0-.48.35-.86.78-.86.23 0-.15.67 0 .85.12.13.78-.23.78 0z"/>
    <path id="c" d="M29 0H0v21.78h11.04v2.54h-5.4V26h17.72V24.32h-5.4V21.8L29 21.77V0zm-1.57 1.84V20.1H1.56V1.7h25.87v.14z"/>
    <path id="d" d="M33.86 5.74c-.17-1.52-.97-2.97-2.26-4.03C30.27.6 28.53 0 26.7 0c-3.24 0-6.04 1.9-6.9 4.63-.56-.48-1.46-.8-2.3-.8-.84 0-1.74.32-2.3.8C14.35 1.9 11.55 0 8.3 0 6.48 0 4.73.6 3.4 1.7 2.1 2.77 1.3 4.22 1.14 5.74H0V7h1.14C1.3 8.5 2.1 9.95 3.4 11c1.33 1.1 3.07 1.7 4.9 1.7 3.97 0 7.2-2.84 7.2-6.35 0-.7.9-1.5 2-1.5s2 .8 2 1.5c0 3.5 3.23 6.36 7.2 6.36 1.82 0 3.57-.6 4.9-1.7 1.3-1.07 2.1-2.53 2.26-4.05H35V5.74h-1.14zM26.7 11.7c-3.32 0-6-2.4-6-5.33 0-2.94 2.7-5.33 6-5.33 3.32 0 6.02 2.4 6.02 5.33s-2.7 5.32-6.02 5.32zm-18.4 0c-3.32 0-6.02-2.4-6.02-5.33 0-2.94 2.7-5.33 6.02-5.33 3.32 0 6 2.4 6 5.33s-2.68 5.32-6 5.32z"/>
    <path id="e" d="M0 0h7v-1H0v1z"/>
  </defs>
</svg>