<svg width="377" height="286" viewBox="0 0 377 286" version="1.1" xmlns="http://www.w3.org/2000/svg" xmlns:xlink="http://www.w3.org/1999/xlink">
<title>Group 3</title>
<desc>Created using Figma</desc>
<g id="Canvas" transform="translate(2462 1035)">
<g id="Group 3">
<g id="Rectangle 3">
<use xlink:href="#path0_fill" transform="translate(-2418.91 -1024.02)" fill="#FFFFFF"/>
</g>
<g id="computer-screen 2">
<g id="Group">
<g id="Vector">
<use xlink:href="#path1_fill" transform="translate(-2429.69 -1035)"/>
</g>
</g>
</g>
<g id="Vector">
<use xlink:href="#path2_fill" transform="translate(-2462 -991.102)"/>
</g>
<g id="Line 2">
<use xlink:href="#path3_stroke" transform="translate(-2311.2 -837.454)"/>
</g>
<g id="Line 2.1">
<use xlink:href="#path3_stroke" transform="translate(-2311.2 -839.625)"/>
</g>
<g id="Line 2.4">
<use xlink:href="#path3_stroke" transform="translate(-2311.2 -840.625)"/>
</g>
<g id="Line 2.5">
<use xlink:href="#path3_stroke" transform="translate(-2311.2 -841.625)"/>
</g>
<g id="Line 2.6">
<use xlink:href="#path3_stroke" transform="translate(-2311.2 -842.625)"/>
</g>
<g id="Line 2.7">
<use xlink:href="#path3_stroke" transform="translate(-2311.2 -843.625)"/>
</g>
<g id="Line 2.8">
<use xlink:href="#path3_stroke" transform="translate(-2311.2 -844.625)"/>
</g>
<g id="Line 2.2">
<use xlink:href="#path3_stroke" transform="translate(-2311.2 -838.625)"/>
</g>
<g id="Line 2.3">
<use xlink:href="#path3_stroke" transform="translate(-2311.2 -837.625)"/>
</g>
<g id="eye">
<g id="Vector">
<use xlink:href="#path4_fill" transform="translate(-2225.03 -947.201)" fill="#FFFFFF"/>
</g>
<g id="Vector">
<use xlink:href="#path5_fill" transform="translate(-2225.03 -947.201)"/>
</g>
</g>
<g id="eye">
<g id="Vector">
<use xlink:href="#path6_fill" transform="translate(-2397.37 -947.201)" fill="#FFFFFF"/>
</g>
<g id="Vector">
<use xlink:href="#path7_fill" transform="translate(-2397.37 -947.201)"/>
</g>
</g>
<g id="Vector 2">
<use xlink:href="#path8_stroke" transform="translate(-2430.5 -982.328)" fill="#FFFFFF"/>
</g>
<g id="Vector 2.1">
<use xlink:href="#path9_stroke" transform="matrix(-1 0 0 1 -2117 -982.828)" fill="#FFFFFF"/>
</g>
</g>
</g>
<defs>
<path id="path0_fill" d="M 0 0L 290.829 0L 290.829 219.496L 0 219.496L 0 0Z"/>
<path id="path1_fill" d="M 312.371 0L 295.408 0L 293.879 0L 18.339 0L 16.8098 0L 0 0L 0 18.5547L 0 20.2317L 0 218.942L 0 228.75L 0 239.084L 118.896 239.174L 118.896 266.934L 60.7388 266.934L 60.7388 276.511L 60.7388 285.345L 251.632 285.345L 251.632 275.394L 251.632 266.934L 193.322 266.934L 193.322 239.174L 312.371 239.084L 312.371 228.75L 312.371 218.942L 312.371 20.2322L 312.371 18.5553L 312.371 0ZM 295.408 20.2322L 295.408 218.943L 295.408 220.65L 16.8098 220.65L 16.8098 218.943L 16.8098 20.2322L 16.8098 18.5553L 295.407 18.5553L 295.408 20.2322Z"/>
<path id="path2_fill" d="M 364.714 63.0369C 362.862 46.3484 354.279 30.4185 340.394 18.7366C 326.004 6.67539 307.322 0 287.631 0C 252.708 0 222.581 20.7847 213.156 50.8239C 207.266 45.514 197.588 41.9487 188.5 41.9487C 179.412 41.9487 169.734 45.514 163.844 50.8239C 154.419 20.7847 124.292 0 89.3692 0C 69.7618 0 50.996 6.59953 36.606 18.6607C 22.721 30.4185 14.1375 46.3484 12.2862 63.0369L 0 63.0369L 0 76.6911L 12.2862 76.6911C 14.1375 93.3795 22.721 109.309 36.606 120.991C 50.996 133.053 69.6777 139.728 89.3692 139.728C 132.118 139.728 166.873 108.475 166.873 69.9398C 166.873 69.864 166.873 69.864 166.873 69.864C 166.873 62.3542 176.55 53.4789 188.5 53.4789C 200.45 53.4789 210.127 62.3542 210.127 69.864C 210.127 69.864 210.127 69.864 210.127 69.9398C 210.127 108.475 244.882 139.728 287.631 139.728C 307.238 139.728 326.004 133.128 340.394 120.991C 354.279 109.309 362.862 93.3037 364.714 76.6152L 377 76.6152L 377 62.961L 364.714 62.961L 364.714 63.0369ZM 287.631 128.274C 251.866 128.274 222.834 102.027 222.834 69.864C 222.834 37.6249 251.95 11.4544 287.631 11.4544C 323.395 11.4544 352.428 37.7008 352.428 69.864C 352.428 102.103 323.395 128.274 287.631 128.274ZM 89.3692 128.274C 53.6047 128.274 24.5723 102.027 24.5723 69.864C 24.5723 37.6249 53.6888 11.4544 89.3692 11.4544C 125.134 11.4544 154.166 37.7008 154.166 69.864C 154.166 102.103 125.134 128.274 89.3692 128.274Z"/>
<path id="path3_stroke" d="M 0 0L 75.4 0L 75.4 -1L 0 -1L 0 0Z"/>
<path id="path4_fill" d="M 0 22.9373C 0 26.077 12.7256 45.8747 36.9999 45.8747C 61.2725 45.8747 73.9997 26.077 73.9997 22.9373C 73.9997 19.7985 61.2725 0 36.9999 0C 12.7256 0 0 19.7985 0 22.9373Z"/>
<path id="path5_fill" d="M 0 22.9373C 0 26.077 12.7256 45.8747 36.9999 45.8747C 61.2725 45.8747 73.9997 26.077 73.9997 22.9373C 73.9997 19.7985 61.2725 0 36.9999 0C 12.7256 0 0 19.7985 0 22.9373ZM 36.9999 40.5818C 27.9181 40.5818 20.5548 32.6823 20.5548 22.9373C 20.5548 13.1924 27.9181 5.29283 36.9999 5.29283C 46.0816 5.29283 53.4442 13.1924 53.4442 22.9373C 53.4442 32.6823 46.0816 40.5818 36.9999 40.5818ZM 45.2216 22.9373C 45.2216 27.8094 41.5395 31.7604 36.9999 31.7604C 32.4586 31.7604 28.7781 27.8094 28.7781 22.9373C 28.7781 18.0653 32.4586 14.1151 36.9999 14.1151C 39.4535 14.1151 35.4942 21.1067 36.9999 22.9373C 38.2797 24.4921 45.2216 20.6996 45.2216 22.9373Z"/>
<path id="path6_fill" d="M 0 22.9311C 0 26.0699 12.8738 45.8622 37.4307 45.8622C 61.9861 45.8622 74.8614 26.0699 74.8614 22.9311C 74.8614 19.7932 61.9861 0 37.4307 0C 12.8738 0 0 19.7932 0 22.9311Z"/>
<path id="path7_fill" d="M 0 22.9311C 0 26.0699 12.8738 45.8622 37.4307 45.8622C 61.9861 45.8622 74.8614 26.0699 74.8614 22.9311C 74.8614 19.7932 61.9861 0 37.4307 0C 12.8738 0 0 19.7932 0 22.9311ZM 37.4307 40.5708C 28.2432 40.5708 20.7941 32.6734 20.7941 22.9311C 20.7941 13.1888 28.2432 5.2914 37.4307 5.2914C 46.6182 5.2914 54.0665 13.1888 54.0665 22.9311C 54.0665 32.6734 46.6182 40.5708 37.4307 40.5708ZM 45.7482 22.9311C 45.7482 27.8018 42.0233 31.7518 37.4307 31.7518C 32.8366 31.7518 29.1132 27.8018 29.1132 22.9311C 29.1132 18.0604 32.8366 14.1113 37.4307 14.1113C 39.913 14.1113 35.9075 21.1009 37.4307 22.9311C 38.7254 24.4854 45.7482 20.694 45.7482 22.9311Z"/>
<path id="path8_stroke" d="M 0.670913 13.7415C 11.0843 4.31993 17.5011 1.36747 18.4472 0.894427L 17.5528 -0.894427C 16.4989 -0.36747 9.91573 2.68007 -0.670913 12.2585L 0.670913 13.7415Z"/>
<path id="path9_stroke" d="M 0.682276 14.2311C 4.39995 10.7604 8.34617 7.67825 11.7008 5.31787C 15.0745 2.94375 17.7405 1.38088 18.8714 0.92846L 18.1286 -0.92846C 16.7596 -0.38082 13.926 1.30638 10.5498 3.68227C 7.15465 6.07192 3.10079 9.23977 -0.682276 12.7689L 0.682276 14.2311Z"/>
</defs>
</svg>
